<?xml version="1.0" encoding="utf-8"?>
<!-- Generator: Adobe Illustrator 24.0.0, SVG Export Plug-In . SVG Version: 6.00 Build 0)  -->
<svg version="1.1" xmlns="http://www.w3.org/2000/svg" xmlns:xlink="http://www.w3.org/1999/xlink" x="0px" y="0px"
	 viewBox="0 0 720 720" style="enable-background:new 0 0 720 720;" xml:space="preserve">
<style type="text/css">
	.st0{display:none;}
	.st1{display:inline;}
	.st2{display:inline;fill:#FFD00B;}
	.st3{fill:#AF9114;}
	.st4{display:inline;fill:none;stroke:#603813;stroke-width:18;stroke-miterlimit:10;}
	.st5{clip-path:url(#SVGID_4_);}
	.st6{fill:#FFD00B;}
	.st7{fill:none;stroke:#603813;stroke-width:28.9387;stroke-miterlimit:10;}
</style>
<g id="Layer_1" class="st0">
	<g class="st1">
		<g>
			<path d="M267.56,192.69c9.01-3.53,18.56-5.4,28.24-5.48c-0.48-0.63-0.96-1.27-1.45-1.9c-5.85,23.89-8.94,48.55-8.32,73.16
				c0.62,24.37,4.92,48.78,13.91,71.5c4.49,11.34,9.94,22.5,17.36,32.23c7.48,9.8,17.04,17.5,27.56,23.85
				c21.58,13.02,45.98,21.45,70.94,24.8c13.68,1.84,27.49,2.2,41.27,2.27c11.84,0.06,23.68-0.05,35.52-0.1
				c2.64-0.01,5.27-0.02,7.91-0.02c1.93,0,1.93-3,0-3c-11.01,0-22.01,0.13-33.02,0.14c-13.48,0.01-26.99,0.02-40.44-1.07
				c-25.19-2.06-49.8-8.97-72.16-20.8c-10.74-5.68-21.15-12.36-29.56-21.21c-8.39-8.82-14.45-19.58-19.42-30.62
				c-9.83-21.84-15.04-45.6-16.5-69.45c-1.49-24.24,0.78-48.64,5.88-72.35c0.61-2.85,1.27-5.69,1.96-8.52
				c0.23-0.94-0.45-1.91-1.45-1.9c-9.93,0.08-19.79,1.96-29.03,5.58C264.98,190.5,265.75,193.4,267.56,192.69L267.56,192.69z"/>
		</g>
	</g>
	<g class="st1">
		<g>
			<path d="M265.33,191.9c-0.46,12.55-0.92,25.1-1.37,37.65c-0.1,2.77,0.05,5.71-0.56,8.43c-0.57,2.53-2.09,4.08-4.34,5.27
				c-2.15,1.13-4.41,2-6.55,3.16c-1.95,1.05-3.83,2.23-5.63,3.51c-14.88,10.58-23.99,27.74-26.84,45.56
				c-1.58,9.85-1.15,19.94-0.28,29.84c0.93,10.56,2.7,21.05,5.46,31.29c2.7,10.03,6.35,19.82,11.04,29.09
				c4.72,9.33,10.68,17.66,17.08,25.89c8.6,11.07,17.14,22.68,27.86,31.82c9.53,8.13,20.8,13.37,32.42,17.79
				c8.84,3.37,17.87,6.77,27.07,9.02c10.98,2.68,22.34,3.63,33.63,3.47c23.04-0.32,45.7-5.08,68.24-9.42
				c8.79-1.69,17.61-3.27,26.38-5.08c5.57-1.15,11.15-2.41,16.54-4.28c4.9-1.7,9.58-3.95,14.07-6.54c2.85-1.64,5.89-3.29,8.45-5.35
				c2.09-1.68,2.8-3.94,2.3-6.56c-0.54-2.85-1.7-5.67-2.57-8.43c-1.81-5.73-3.62-11.47-5.44-17.2c-0.58-1.83-3.48-1.05-2.89,0.8
				c1.81,5.73,3.62,11.47,5.44,17.2c0.87,2.75,2.08,5.59,2.57,8.43c0.48,2.73-1.8,3.86-3.77,5.11c-4.61,2.93-9.33,5.7-14.35,7.87
				c-11.32,4.89-23.93,6.66-35.96,8.94c-21.76,4.12-43.5,9.04-65.61,10.85c-11.2,0.92-22.5,1.02-33.66-0.38
				c-10.49-1.32-20.39-4.45-30.32-7.94c-12.35-4.33-24.92-8.98-35.64-16.67c-10.16-7.29-18.15-17.21-25.86-26.92
				c-5.92-7.46-12.05-14.88-17.15-22.94c-5.48-8.66-9.9-17.96-13.32-27.62c-6.88-19.42-10.23-40.57-9.74-61.17
				c0.42-17.78,7.05-35.91,19.91-48.46c3.16-3.08,6.66-5.78,10.46-8.01c1.94-1.14,3.96-2.13,6.01-3.05
				c2.06-0.92,4.21-1.94,5.72-3.67c3.38-3.9,2.7-9.99,2.88-14.79c0.23-6.23,0.45-12.45,0.68-18.68c0.22-5.94,0.43-11.88,0.65-17.82
				C268.4,189.97,265.4,189.98,265.33,191.9L265.33,191.9z"/>
		</g>
	</g>
</g>
<g id="Layer_2" class="st0">
	<path class="st2" d="M286.05,155.97c0,0-3.9-6.63-30.84-2.37l-14.92,48.93c0,0-54.47,5.16-66.41,87.26
		c-7.72,53.07,20.09,136.77,97.94,174.93c99.9,48.97,180.3,17.15,208.17-3.72l10.29-31.93c0,0-112.59,9.08-182.79-58.6
		C243.83,309.1,262.36,212.74,286.05,155.97z"/>
	<g id="Layer_3" class="st1">
		<g>
			<defs>
				<path id="SVGID_1_" d="M447.27,477.68c-11.07,3.81-35.7,7.89-45,11c-20.07,6.72-39,2-39,2l-70-16l-59-35l-37-44l-24-70l14-87
					l53-38c0,0-44.23,160.83,64.73,219.32c93.73,50.32,160,29,185,25"/>
			</defs>
			<use xlink:href="#SVGID_1_"  style="overflow:visible;fill:#AA8900;"/>
			<clipPath id="SVGID_2_">
				<use xlink:href="#SVGID_1_"  style="overflow:visible;"/>
			</clipPath>
		</g>
		<path class="st3" d="M273.27,438.68"/>
	</g>
	<path class="st4" d="M286.4,155.49c0,0-3.9-6.63-30.84-2.37l-14.92,48.93c0,0-54.47,5.16-66.41,87.26
		c-7.72,53.07,20.09,136.77,97.94,174.93c99.9,48.97,180.3,17.15,208.17-3.72l10.29-31.93c0,0-112.59,9.08-182.79-58.6
		C244.18,308.62,262.71,212.26,286.4,155.49z"/>
</g>
<g id="Layer_4">
	<g>
		<defs>
			<polygon id="SVGID_3_" points="38.95,299.21 73.69,213.17 153.1,160.95 206.16,132.01 224.56,106.63 444.1,91.82 821.91,168.99 
				844.41,545.19 746.34,704.35 442.49,714 85.58,701.14 -35,492.14 -35,374.77 			"/>
		</defs>
		<clipPath id="SVGID_4_">
			<use xlink:href="#SVGID_3_"  style="overflow:visible;"/>
		</clipPath>
		<g class="st5">
			<path class="st6" d="M678.98,236.94c0,0-146.54,107.25-299.69,73.68c-119.3-26.15-177.27-138.75-200.97-231.91
				c-1.2,0.58-2.41,1.15-3.62,1.71c1.52,3.34,1.05,7.7-2.82,10.44c-1.05,0.74-2.13,1.38-3.22,1.94c-4.58,2.82-9.08,5.88-13.33,9.22
				c-1.92,3.27-3.97,6.47-5.82,9.7c-1.63,5.48-3.66,10.96-6.15,15.95l2.49,9.53c0,0-70.25,52.94-17.47,175.43
				c34.12,79.18,142.69,170.38,281.45,157.09c178.06-17.06,261.36-128.35,281.96-180.39L678.98,236.94z"/>
			<g>
				<defs>
					<path id="SVGID_5_" d="M661,339.75c-11.95,14.53-42.24,40.86-52.36,52.96c-21.83,26.1-51.73,35.58-51.73,35.58l-109.34,37.04
						l-110.28,1.75l-87.72-29.1l-91.82-75.66l-54.09-130.94l40.58-96.67c0,0,74.87,257.5,273.34,245.84
						C588.33,370.53,661.13,285.53,692,259"/>
				</defs>
				<use xlink:href="#SVGID_5_"  style="overflow:visible;fill:#AA8900;"/>
				<clipPath id="SVGID_6_">
					<use xlink:href="#SVGID_5_"  style="overflow:visible;"/>
				</clipPath>
			</g>
			<path class="st3" d="M389.86,432.86"/>
			<path class="st7" d="M679.05,235.99c0,0-146.54,107.25-299.69,73.68C260.41,283.6,202.43,171.57,178.6,78.57
				c-1.3,0.62-2.6,1.24-3.91,1.85c1.52,3.34,1.05,7.7-2.82,10.44c-1.05,0.74-2.13,1.38-3.22,1.94c-4.58,2.82-9.08,5.88-13.33,9.22
				c-1.92,3.26-3.97,6.46-5.82,9.7c-1.58,5.33-3.55,10.65-5.94,15.53l2.35,9c0,0-70.25,52.94-17.47,175.43
				c34.12,79.18,142.69,170.38,281.45,157.09c178.06-17.06,261.36-128.35,281.96-180.39L679.05,235.99z"/>
		</g>
		<g class="st5">
			<path class="st6" d="M660.22,333.45c0,0-162.22,81.62-307.73,23.26C229.92,307.55,194.75,170.53,191.14,72.04
				c-5.32,3.08-10.86,5.76-16.45,8.38c1.52,3.34,1.05,7.7-2.82,10.44c-1.05,0.74-2.13,1.38-3.22,1.94
				c-5.11,3.14-10.1,6.58-14.77,10.38c-0.46,0.74-0.91,1.49-1.33,2.25c-0.55,0.99-1.22,1.77-1.95,2.37
				c-0.74,2.82-1.59,5.67-2.55,8.49l2.78,30.88c0,0-78.01,40.63-46.15,170.15c20.6,83.73,112.64,191.58,251.69,201.35
				c178.44,12.53,278.95-83.5,307.85-131.43L660.22,333.45z"/>
			<g>
				<defs>
					<path id="SVGID_7_" d="M625.54,431.89c-14.18,12.36-48.4,33.34-60.38,43.6c-25.84,22.14-56.89,26.57-56.89,26.57l-113.95,18.5
						L285.27,504.1l-81.73-43.17l-78.08-89.76L93.7,233.11l55.97-88.66c0,0,31.38,266.32,229.06,287.55
						c170.06,18.27,255.88-53.56,290.7-74.64"/>
				</defs>
				<use xlink:href="#SVGID_7_"  style="overflow:visible;fill:#AA8900;"/>
				<clipPath id="SVGID_8_">
					<use xlink:href="#SVGID_7_"  style="overflow:visible;"/>
				</clipPath>
			</g>
			<path class="st3" d="M342.76,479.02"/>
			<path class="st7" d="M660.45,332.53c0,0-162.22,81.62-307.73,23.26C230.47,306.76,195.16,170.33,191.4,71.89
				c-5.4,3.15-11.03,5.87-16.7,8.53c1.52,3.34,1.05,7.7-2.82,10.44c-1.05,0.74-2.13,1.38-3.22,1.94
				c-5.11,3.14-10.1,6.58-14.77,10.38c-0.46,0.74-0.91,1.49-1.33,2.25c-0.55,0.99-1.22,1.77-1.94,2.37
				c-0.68,2.59-1.45,5.2-2.31,7.78l2.76,30.67c0,0-78.01,40.63-46.15,170.15c20.6,83.73,112.64,191.58,251.69,201.35
				c178.44,12.53,278.95-83.5,307.85-131.43L660.45,332.53z"/>
		</g>
		<g class="st5">
			<path class="st6" d="M304.29,401.08c-117.75-79.65-114.98-237.38-93.11-333.83c0,0-0.79-0.93-3.16-1.76
				c-2.66,0.86-5.33,1.68-7.99,2.48c-1.44,0.43-2.88,0.84-4.31,1.26c-6.68,4.34-13.82,7.81-21.03,11.2
				c1.52,3.34,1.05,7.7-2.82,10.44c-1.05,0.74-2.13,1.38-3.22,1.94c-3.55,2.18-7.04,4.52-10.42,7.01l-6.68,53.78
				c0,0-84.85,23.2-81.12,156.52c2.41,86.19,69.54,211.08,203.37,250.06c171.74,50.02,290.3-22.56,328.69-63.29l7.49-53.41
				C609.98,443.48,434.16,488.91,304.29,401.08z"/>
			<g>
				<defs>
					<path id="SVGID_9_" d="M555.24,532.35c-16.48,9.08-54.36,22.34-68.24,29.83c-29.94,16.17-61.22,13.92-61.22,13.92l-115.28-6.04
						L207.4,530.9l-70.74-59.49L79.35,367.16L77.53,225.5L151,150.7c0,0-25.7,266.93,163.01,329.52
						c162.34,53.85,261.42,1.81,299.91-11.42"/>
				</defs>
				<use xlink:href="#SVGID_9_"  style="overflow:visible;fill:#AA8900;"/>
				<clipPath id="SVGID_10_">
					<use xlink:href="#SVGID_9_"  style="overflow:visible;"/>
				</clipPath>
			</g>
			<path class="st3" d="M268.9,518.56"/>
			<path class="st7" d="M304.71,400.22C186.96,320.58,189.73,162.84,211.6,66.4c0,0-0.57-0.66-2.16-1.37c-3.12,1.03-6.27,2-9.4,2.94
				c-1.44,0.43-2.88,0.84-4.32,1.26c-6.68,4.34-13.82,7.81-21.03,11.2c1.52,3.34,1.05,7.7-2.82,10.44
				c-1.05,0.74-2.13,1.38-3.22,1.94c-3.43,2.11-6.81,4.37-10.08,6.76l-6.61,53.18c0,0-84.85,23.2-81.12,156.52
				c2.41,86.19,69.54,211.08,203.37,250.06c171.74,50.02,290.3-22.56,328.69-63.29l7.49-53.41
				C610.39,442.63,434.57,488.06,304.71,400.22z"/>
		</g>
	</g>
	<g>
		<path class="st6" d="M230.73,92.68c0,0-5.68-10.98-49.29-6.51L153.2,163.4c0,0-87.89,3.51-114.26,134.25
			C21.89,382.18,59.2,518.97,180.83,587.07c156.08,87.38,287.94,43.33,334.5,12.29l19.31-50.36c0,0-181.54,4.7-288.3-110.1
			C149.53,334.8,187.72,181.73,230.73,92.68z"/>
		<g>
			<defs>
				<path id="SVGID_11_" d="M461.32,623.27c-18.1,5.14-57.99,9.53-73.2,13.71c-32.81,9.02-62.78-0.21-62.78-0.21l-110.97-31.82
					l-91.64-61.36l-55.54-73.88L34.8,355.23L64.9,216.8l88.41-56.35c0,0-85.1,254.3,84.69,357.75
					c146.06,88.99,254.31,60.58,294.79,56.35"/>
			</defs>
			<use xlink:href="#SVGID_11_"  style="overflow:visible;fill:#AA8900;"/>
			<clipPath id="SVGID_12_">
				<use xlink:href="#SVGID_11_"  style="overflow:visible;"/>
			</clipPath>
		</g>
		<path class="st3" d="M185.42,545.4"/>
		<path class="st7" d="M231.33,91.94c0,0-5.68-10.98-49.29-6.51l-28.24,77.24c0,0-87.89,3.51-114.26,134.25
			C22.49,381.44,59.8,518.24,181.43,586.33c156.08,87.38,287.94,43.33,334.5,12.29l19.31-50.36c0,0-181.54,4.7-288.3-110.1
			C150.13,334.06,188.32,180.99,231.33,91.94z"/>
	</g>
</g>
</svg>
