<?xml version="1.0" encoding="utf-8"?>
<!-- Generator: Adobe Illustrator 24.0.0, SVG Export Plug-In . SVG Version: 6.00 Build 0)  -->
<svg version="1.1" xmlns="http://www.w3.org/2000/svg" xmlns:xlink="http://www.w3.org/1999/xlink" x="0px" y="0px"
	 viewBox="0 0 720 720" style="enable-background:new 0 0 720 720;" xml:space="preserve">
<style type="text/css">
	.st0{display:none;}
	.st1{display:inline;}
	.st2{display:inline;fill:#FFD00B;}
	.st3{fill:#AF9114;}
	.st4{display:inline;fill:none;stroke:#603813;stroke-width:18;stroke-miterlimit:10;}
	.st5{display:inline;clip-path:url(#SVGID_4_);}
	.st6{fill:#FFD00B;}
	.st7{fill:none;stroke:#603813;stroke-width:25.9305;stroke-miterlimit:10;}
</style>
<g id="Layer_1" class="st0">
	<g class="st1">
		<g>
			<path d="M267.56,192.69c9.01-3.53,18.56-5.4,28.24-5.48c-0.48-0.63-0.96-1.27-1.45-1.9c-5.85,23.89-8.94,48.55-8.32,73.16
				c0.62,24.37,4.92,48.78,13.91,71.5c4.49,11.34,9.94,22.5,17.36,32.23c7.48,9.8,17.04,17.5,27.56,23.85
				c21.58,13.02,45.98,21.45,70.94,24.8c13.68,1.84,27.49,2.2,41.27,2.27c11.84,0.06,23.68-0.05,35.52-0.1
				c2.64-0.01,5.27-0.02,7.91-0.02c1.93,0,1.93-3,0-3c-11.01,0-22.01,0.13-33.02,0.14c-13.48,0.01-26.99,0.02-40.44-1.07
				c-25.19-2.06-49.8-8.97-72.16-20.8c-10.74-5.68-21.15-12.36-29.56-21.21c-8.39-8.82-14.45-19.58-19.42-30.62
				c-9.83-21.84-15.04-45.6-16.5-69.45c-1.49-24.24,0.78-48.64,5.88-72.35c0.61-2.85,1.27-5.69,1.96-8.52
				c0.23-0.94-0.45-1.91-1.45-1.9c-9.93,0.08-19.79,1.96-29.03,5.58C264.98,190.5,265.75,193.4,267.56,192.69L267.56,192.69z"/>
		</g>
	</g>
	<g class="st1">
		<g>
			<path d="M265.33,191.9c-0.46,12.55-0.92,25.1-1.37,37.65c-0.1,2.77,0.05,5.71-0.56,8.43c-0.57,2.53-2.09,4.08-4.34,5.27
				c-2.15,1.13-4.41,2-6.55,3.16c-1.95,1.05-3.83,2.23-5.63,3.51c-14.88,10.58-23.99,27.74-26.84,45.56
				c-1.58,9.85-1.15,19.94-0.28,29.84c0.93,10.56,2.7,21.05,5.46,31.29c2.7,10.03,6.35,19.82,11.04,29.09
				c4.72,9.33,10.68,17.66,17.08,25.89c8.6,11.07,17.14,22.68,27.86,31.82c9.53,8.13,20.8,13.37,32.42,17.79
				c8.84,3.37,17.87,6.77,27.07,9.02c10.98,2.68,22.34,3.63,33.63,3.47c23.04-0.32,45.7-5.08,68.24-9.42
				c8.79-1.69,17.61-3.27,26.38-5.08c5.57-1.15,11.15-2.41,16.54-4.28c4.9-1.7,9.58-3.95,14.07-6.54c2.85-1.64,5.89-3.29,8.45-5.35
				c2.09-1.68,2.8-3.94,2.3-6.56c-0.54-2.85-1.7-5.67-2.57-8.43c-1.81-5.73-3.62-11.47-5.44-17.2c-0.58-1.83-3.48-1.05-2.89,0.8
				c1.81,5.73,3.62,11.47,5.44,17.2c0.87,2.75,2.08,5.59,2.57,8.43c0.48,2.73-1.8,3.86-3.77,5.11c-4.61,2.93-9.33,5.7-14.35,7.87
				c-11.32,4.89-23.93,6.66-35.96,8.94c-21.76,4.12-43.5,9.04-65.61,10.85c-11.2,0.92-22.5,1.02-33.66-0.38
				c-10.49-1.32-20.39-4.45-30.32-7.94c-12.35-4.33-24.92-8.98-35.64-16.67c-10.16-7.29-18.15-17.21-25.86-26.92
				c-5.92-7.46-12.05-14.88-17.15-22.94c-5.48-8.66-9.9-17.96-13.32-27.62c-6.88-19.42-10.23-40.57-9.74-61.17
				c0.42-17.78,7.05-35.91,19.91-48.46c3.16-3.08,6.66-5.78,10.46-8.01c1.94-1.14,3.96-2.13,6.01-3.05
				c2.06-0.92,4.21-1.94,5.72-3.67c3.38-3.9,2.7-9.99,2.88-14.79c0.23-6.23,0.45-12.45,0.68-18.68c0.22-5.94,0.43-11.88,0.65-17.82
				C268.4,189.97,265.4,189.98,265.33,191.9L265.33,191.9z"/>
		</g>
	</g>
</g>
<g id="Layer_2" class="st0">
	<path class="st2" d="M286.05,155.97c0,0-3.9-6.63-30.84-2.37l-14.92,48.93c0,0-54.47,5.16-66.41,87.26
		c-7.72,53.07,20.09,136.77,97.94,174.93c99.9,48.97,180.3,17.15,208.17-3.72l10.29-31.93c0,0-112.59,9.08-182.79-58.6
		C243.83,309.1,262.36,212.74,286.05,155.97z"/>
	<g id="Layer_3" class="st1">
		<g>
			<defs>
				<path id="SVGID_1_" d="M447.27,477.68c-11.07,3.81-35.7,7.89-45,11c-20.07,6.72-39,2-39,2l-70-16l-59-35l-37-44l-24-70l14-87
					l53-38c0,0-44.23,160.83,64.73,219.32c93.73,50.32,160,29,185,25"/>
			</defs>
			<use xlink:href="#SVGID_1_"  style="overflow:visible;fill:#AA8900;"/>
			<clipPath id="SVGID_2_">
				<use xlink:href="#SVGID_1_"  style="overflow:visible;"/>
			</clipPath>
		</g>
		<path class="st3" d="M273.27,438.68"/>
	</g>
	<path class="st4" d="M286.4,155.49c0,0-3.9-6.63-30.84-2.37l-14.92,48.93c0,0-54.47,5.16-66.41,87.26
		c-7.72,53.07,20.09,136.77,97.94,174.93c99.9,48.97,180.3,17.15,208.17-3.72l10.29-31.93c0,0-112.59,9.08-182.79-58.6
		C244.18,308.62,262.71,212.26,286.4,155.49z"/>
</g>
<g id="Layer_4">
	<g class="st0">
		<defs>
			<polygon id="SVGID_3_" points="81.27,317.88 112.39,240.78 183.55,193.99 231.09,168.06 247.58,145.32 444.29,132.04 
				782.83,201.19 803,538.29 715.12,680.91 442.85,689.55 123.04,678.02 15,490.75 15,385.59 			"/>
		</defs>
		<clipPath id="SVGID_4_" class="st1">
			<use xlink:href="#SVGID_3_"  style="overflow:visible;"/>
		</clipPath>
		<g class="st5">
			<path class="st6" d="M654.76,262.08c0,0-131.31,96.1-268.54,66.02c-106.9-23.43-158.84-124.33-180.08-207.8
				c-1.08,0.52-2.16,1.03-3.25,1.54c1.36,2.99,0.94,6.9-2.52,9.36c-0.94,0.67-1.91,1.24-2.89,1.74c-4.11,2.52-8.13,5.27-11.94,8.26
				c-1.72,2.93-3.56,5.79-5.22,8.7c-1.46,4.91-3.28,9.82-5.51,14.29l2.23,8.54c0,0-62.94,47.43-15.65,157.19
				c30.57,70.95,127.86,152.67,252.19,140.76c159.55-15.29,234.2-115.01,252.65-161.64L654.76,262.08z"/>
			<g>
				<defs>
					<path id="SVGID_5_" d="M638.65,354.2c-10.71,13.02-37.85,36.61-46.92,47.45c-19.57,23.39-46.35,31.88-46.35,31.88l-97.97,33.19
						l-98.81,1.57l-78.61-26.08l-82.27-67.79L139.25,257.1l36.37-86.62c0,0,67.08,230.73,244.93,220.29
						c152.99-8.98,218.23-85.14,245.89-108.92"/>
				</defs>
				<use xlink:href="#SVGID_5_"  style="overflow:visible;fill:#AA8900;"/>
				<clipPath id="SVGID_6_">
					<use xlink:href="#SVGID_5_"  style="overflow:visible;"/>
				</clipPath>
			</g>
			<path class="st3" d="M395.7,437.64"/>
			<path class="st7" d="M654.82,261.23c0,0-131.31,96.1-268.54,66.02C279.7,303.89,227.75,203.51,206.4,120.18
				c-1.16,0.56-2.33,1.11-3.5,1.66c1.36,2.99,0.94,6.9-2.52,9.36c-0.94,0.67-1.91,1.24-2.89,1.74c-4.11,2.52-8.13,5.27-11.94,8.26
				c-1.72,2.92-3.55,5.79-5.22,8.69c-1.42,4.78-3.18,9.55-5.33,13.92l2.1,8.06c0,0-62.94,47.43-15.65,157.19
				c30.57,70.95,127.86,152.67,252.19,140.76c159.55-15.29,234.2-115.01,252.65-161.64L654.82,261.23z"/>
		</g>
		<g class="st5">
			<path class="st6" d="M637.96,348.56c0,0-145.36,73.13-275.75,20.84c-109.83-44.05-141.34-166.82-144.58-255.08
				c-4.77,2.76-9.73,5.16-14.74,7.51c1.36,2.99,0.94,6.9-2.52,9.36c-0.94,0.67-1.91,1.24-2.89,1.74c-4.58,2.81-9.05,5.89-13.24,9.3
				c-0.41,0.67-0.81,1.33-1.19,2.02c-0.5,0.89-1.09,1.58-1.74,2.12c-0.66,2.53-1.43,5.08-2.29,7.61l2.49,27.67
				c0,0-69.9,36.41-41.36,152.46c18.45,75.02,100.93,171.67,225.53,180.42c159.89,11.23,249.95-74.82,275.85-117.77L637.96,348.56z"
				/>
			<g>
				<defs>
					<path id="SVGID_7_" d="M606.88,436.76c-12.71,11.08-43.37,29.87-54.1,39.07c-23.15,19.84-50.97,23.8-50.97,23.8l-102.1,16.58
						l-97.72-14.74l-73.23-38.68l-69.97-80.43l-28.46-123.71l50.15-79.44c0,0,28.12,238.63,205.25,257.66
						c152.38,16.37,229.28-48,260.48-66.88"/>
				</defs>
				<use xlink:href="#SVGID_7_"  style="overflow:visible;fill:#AA8900;"/>
				<clipPath id="SVGID_8_">
					<use xlink:href="#SVGID_7_"  style="overflow:visible;"/>
				</clipPath>
			</g>
			<path class="st3" d="M353.49,479"/>
			<path class="st7" d="M638.16,347.73c0,0-145.36,73.13-275.75,20.84c-109.54-43.93-141.18-166.18-144.55-254.39
				c-4.84,2.82-9.88,5.26-14.97,7.65c1.36,2.99,0.94,6.9-2.52,9.36c-0.94,0.67-1.91,1.24-2.89,1.74c-4.58,2.81-9.05,5.89-13.24,9.3
				c-0.41,0.67-0.81,1.33-1.19,2.02c-0.5,0.89-1.09,1.58-1.74,2.12c-0.61,2.32-1.3,4.66-2.07,6.97l2.47,27.48
				c0,0-69.9,36.41-41.36,152.46c18.45,75.02,100.93,171.67,225.53,180.42c159.89,11.23,249.95-74.82,275.85-117.77L638.16,347.73z"
				/>
		</g>
		<g class="st5">
			<path class="st6" d="M319.02,409.15C213.51,337.79,216,196.44,235.59,110.03c0,0-0.71-0.83-2.83-1.58
				c-2.38,0.77-4.77,1.51-7.16,2.22c-1.29,0.39-2.58,0.75-3.87,1.13c-5.98,3.89-12.38,7-18.85,10.03c1.36,2.99,0.94,6.9-2.52,9.36
				c-0.94,0.67-1.91,1.24-2.89,1.74c-3.18,1.96-6.31,4.05-9.34,6.28l-5.99,48.19c0,0-76.03,20.79-72.69,140.25
				c2.16,77.23,62.31,189.14,182.23,224.07c153.89,44.82,260.13-20.22,294.52-56.71l6.71-47.86
				C592.93,447.15,435.39,487.86,319.02,409.15z"/>
			<g>
				<defs>
					<path id="SVGID_9_" d="M543.89,526.78c-14.76,8.13-48.71,20.01-61.15,26.73c-26.83,14.49-54.86,12.48-54.86,12.48l-103.3-5.41
						l-92.38-35.09l-63.38-53.3l-51.36-93.42l-1.63-126.93l65.83-67.03c0,0-23.03,239.18,146.06,295.27
						c145.46,48.25,234.24,1.62,268.74-10.23"/>
				</defs>
				<use xlink:href="#SVGID_9_"  style="overflow:visible;fill:#AA8900;"/>
				<clipPath id="SVGID_10_">
					<use xlink:href="#SVGID_9_"  style="overflow:visible;"/>
				</clipPath>
			</g>
			<path class="st3" d="M287.31,514.42"/>
			<path class="st7" d="M319.4,408.39c-105.51-71.37-103.03-212.71-83.43-299.13c0,0-0.51-0.59-1.94-1.22
				c-2.8,0.93-5.62,1.79-8.42,2.63c-1.29,0.39-2.58,0.75-3.87,1.13c-5.98,3.89-12.38,7-18.85,10.03c1.36,2.99,0.94,6.9-2.52,9.36
				c-0.94,0.67-1.91,1.24-2.89,1.74c-3.08,1.89-6.1,3.91-9.03,6.06l-5.92,47.65c0,0-76.03,20.79-72.69,140.25
				c2.16,77.23,62.31,189.14,182.23,224.07c153.89,44.82,260.13-20.22,294.52-56.71l6.71-47.86
				C593.31,446.39,435.76,487.1,319.4,408.39z"/>
		</g>
	</g>
	<g>
		<path class="st6" d="M313.11,119.82c0,0-5.09-9.84-44.17-5.83l-25.31,69.21c0,0-78.75,3.15-102.38,120.3
			c-15.28,75.73,18.16,198.31,127.14,259.32c139.86,78.3,258.01,38.83,299.73,11.01l17.31-45.12c0,0-162.66,4.22-258.34-98.65
			C240.35,336.76,274.57,199.61,313.11,119.82z"/>
		<g>
			<defs>
				<path id="SVGID_11_" d="M519.73,595.25c-16.22,4.6-51.97,8.54-65.59,12.29c-29.4,8.08-56.26-0.19-56.26-0.19l-99.43-28.51
					l-82.12-54.98l-49.77-66.2l-29.02-102.58l26.97-124.04l79.22-50.5c0,0-76.25,227.87,75.88,320.56
					c130.88,79.74,227.87,54.29,264.15,50.5"/>
			</defs>
			<use xlink:href="#SVGID_11_"  style="overflow:visible;fill:#AA8900;"/>
			<clipPath id="SVGID_12_">
				<use xlink:href="#SVGID_11_"  style="overflow:visible;"/>
			</clipPath>
		</g>
		<path class="st3" d="M272.51,525.48"/>
		<path class="st7" d="M313.65,119.15c0,0-5.09-9.84-44.17-5.83l-25.31,69.21c0,0-78.75,3.15-102.38,120.3
			c-15.28,75.73,18.16,198.31,127.14,259.32c139.86,78.3,258.01,38.83,299.73,11.01l17.31-45.12c0,0-162.66,4.22-258.34-98.65
			C240.88,336.1,275.11,198.95,313.65,119.15z"/>
	</g>
</g>
</svg>
